Coordinates
version=1
nRows=18
nColumns=22
inDegrees=yes

Units are S.I. units (second, meters, Newtons, ...)
If the header above contains a line with 'inDegrees', this indicates whether rotational values are in degrees (yes) or radians (no).

endheader
time	pelvis_tilt	pelvis_list	pelvis_rotation	pelvis_tx	pelvis_ty	pelvis_tz	hip_flexion_r	hip_adduction_r	hip_rotation_r	knee_angle_r	ankle_angle_r	subtalar_angle_r	hip_flexion_l	hip_adduction_l	hip_rotation_l	knee_angle_l	ankle_angle_l	subtalar_angle_l	lumbar_extension	lumbar_bending	lumbar_rotation
      3.40000000	      2.57313034	      3.76573626	    177.01938752	     -0.00855375	      0.92461279	     -0.49797828	     12.73157504	     -3.70842559	     -3.24109545	    -63.41311034	     -3.18788568	      9.48816013	     27.50262807	      3.96749449	     -7.70371291	    -28.72285115	      2.84742500	    -15.75075348	     -6.80322411	      1.97275992	      2.86122088
      3.41000000	      2.30087511	      3.70150779	    178.14538908	     -0.01807110	      0.92559521	     -0.49465104	     14.04002057	     -3.81561318	     -2.98299440	    -65.16661348	     -2.50707655	      8.96006148	     26.51060562	      4.69608343	     -6.84994206	    -28.54313582	      3.25335207	    -16.01047077	     -7.00212463	      1.86793252	      2.38101281
      3.42000000	      2.04348152	      3.64053839	    179.28890164	     -0.02749482	      0.92665427	     -0.49119358	     15.33114919	     -3.88480229	     -2.69093903	    -66.66523598	     -1.66868493	      8.61778264	     25.47549579	      5.40005803	     -5.96336810	    -28.28636226	      3.62281753	    -16.20966984	     -7.17539206	      1.79549348	      1.89744020
      3.43000000	      1.78990406	      3.59403101	    180.44825108	     -0.03682877	      0.92778541	     -0.48762196	     16.58738523	     -3.90611359	     -2.37704801	    -67.90113252	     -0.78909081	      8.05027299	     24.39960419	      6.05952845	     -5.06076472	    -27.97964106	      4.00733635	    -16.45291271	     -7.33517814	      1.76460378	      1.41358619
      3.44000000	      1.57864316	      3.54361344	    181.60746967	     -0.04607439	      0.92892428	     -0.48396165	     17.84919224	     -3.88607720	     -1.98810185	    -68.88389050	      0.19581828	      7.80181053	     23.32121331	      6.68557972	     -4.16136922	    -27.61023951	      4.36498293	    -16.61893766	     -7.43271192	      1.74999809	      0.92916073
      3.45000000	      1.36512386	      3.51131486	    182.80166581	     -0.05524831	      0.93016709	     -0.48015458	     19.04544559	     -3.82459202	     -1.59592329	    -69.58426649	      1.10888557	      7.34016443	     22.16905171	      7.28268539	     -3.15642247	    -27.13828212	      4.60452284	    -16.80291861	     -7.51740149	      1.77595279	      0.42999775
      3.46000000	      1.15481783	      3.48044659	    183.97971901	     -0.06432639	      0.93140765	     -0.47630591	     20.19503815	     -3.71259995	     -1.12735352	    -70.03543026	      2.02486799	      6.74099027	     20.99636266	      7.82683788	     -2.18197243	    -26.64661714	      4.89775931	    -17.02155770	     -7.59356139	      1.81702129	     -0.03621219
      3.47000000	      0.97923016	      3.45039254	    185.16731319	     -0.07329260	      0.93260771	     -0.47237912	     21.32601582	     -3.57004664	     -0.61061765	    -70.24604370	      2.91866215	      6.30988927	     19.82425018	      8.34288772	     -1.15412783	    -26.10500231	      5.10544360	    -17.19106817	     -7.62221340	      1.86496852	     -0.50525552
      3.48000000	      0.80809876	      3.42474801	    186.35514011	     -0.08217054	      0.93379291	     -0.46839376	     22.39313091	     -3.39405943	     -0.05417339	    -70.21148697	      3.76250423	      5.82518692	     18.62020676	      8.81284803	     -0.11844696	    -25.51209168	      5.30063469	    -17.37357879	     -7.64005068	      1.92554686	     -0.97206228
      3.49000000	      0.62586980	      3.39933987	    187.52718639	     -0.09099637	      0.93495803	     -0.46439552	     23.37515829	     -3.18215510	      0.54445472	    -69.94312689	      4.55414352	      5.13799070	     17.36968779	      9.23096458	      0.90055667	    -24.87522439	      5.51807335	    -17.59932682	     -7.66470228	      1.98730302	     -1.41528562
      3.50000000	      0.46120821	      3.38009174	    188.71454883	     -0.09968893	      0.93604589	     -0.46032953	     24.30897051	     -2.94937587	      1.16088415	    -69.46152389	      5.26546504	      4.62371003	     16.12359303	      9.61606817	      1.99386698	    -24.22166132	      5.66824539	    -17.77660347	     -7.67510065	      2.05917210	     -1.86986765
      3.51000000	      0.28596029	      3.35874676	    189.89305254	     -0.10832525	      0.93708242	     -0.45624851	     25.15409067	     -2.69711783	      1.79569197	    -68.77064586	      5.92066549	      4.02978361	     14.84280358	      9.95244040	      3.07889610	    -23.53865684	      5.83852067	    -17.97122912	     -7.69806097	      2.12825207	     -2.31413195
      3.52000000	      0.11254939	      3.33073205	    191.06061130	     -0.11690141	      0.93802476	     -0.45215325	     25.92740637	     -2.43617997	      2.44417616	    -67.89094462	      6.52867024	      3.38321870	     13.55310671	     10.24754410	      4.15358073	    -22.84620663	      6.04797198	    -18.17274368	     -7.72395454	      2.18678114	     -2.74796360
      3.53000000	     -0.06024002	      3.31075733	    192.24228619	     -0.12538805	      0.93887928	     -0.44801825	     26.62839725	     -2.15956604	      3.08350275	    -66.82982698	      7.05865425	      2.87206686	     12.26656235	     10.49723554	      5.27962203	    -22.16489570	      6.23798534	    -18.33588094	     -7.75426503	      2.25503650	     -3.19471413
      3.54000000	     -0.22318436	      3.29093246	    193.42624130	     -0.13379394	      0.93961609	     -0.44385906	     27.26943371	     -1.87653099	      3.72024557	    -65.60435327	      7.53987183	      2.38831751	     11.00096221	     10.70661542	      6.42481499	    -21.50575050	      6.42467900	    -18.47718623	     -7.78195141	      2.31879107	     -3.64444672
      3.55000000	     -0.34379036	      3.28261386	    194.63340812	     -0.14207482	      0.94014810	     -0.43966326	     27.89952444	     -1.59576467	      4.33914807	    -64.24194499	      7.96526854	      2.19117819	      9.81875253	     10.88324750	      7.62367005	    -20.91601589	      6.66732912	    -18.59181620	     -7.77052081	      2.38243856	     -4.13007977
      3.56000000	     -0.55555233	      3.27364942	    195.80116480	     -0.15037875	      0.94076532	     -0.43550621	     28.34559514	     -1.25520186	      4.99215107	    -62.69741960	      8.29730247	      1.87437287	      8.53014185	     10.97661417	      8.77467840	    -20.30499768	      6.88748269	    -18.68607596	     -7.86617973	      2.46328099	     -4.54771650
      3.57000000	     -0.65524182	      3.27255835	    197.00400403	     -0.15851032	      0.94102304	     -0.43129208	     28.87079367	     -0.95321173	      5.62426885	    -61.06113310	      8.61295837	      1.78321542	      7.43413929	     11.07380914	      9.98126165	    -19.82241642	      7.16960618	    -18.78386742	     -7.84629366	      2.52136177	     -5.03057469
